<svg xmlns="http://www.w3.org/2000/svg" width="217.94" height="35" viewBox="0 0 217.94 35"><rect class="svg__rect" x="0" y="0" width="96.46000000000001" height="35" fill="#C13B3A"/><rect class="svg__rect" x="94.46000000000001" y="0" width="123.48" height="35" fill="#005384"/><path class="svg__text" d="M15.70 22L14.22 22L14.22 13.47L17.48 13.47Q18.91 13.47 19.75 14.21Q20.59 14.96 20.59 16.18L20.59 16.18Q20.59 17.44 19.77 18.13Q18.95 18.83 17.46 18.83L17.46 18.83L15.70 18.83L15.70 22ZM15.70 14.66L15.70 17.64L17.48 17.64Q18.27 17.64 18.69 17.27Q19.10 16.90 19.10 16.19L19.10 16.19Q19.10 15.50 18.68 15.09Q18.26 14.68 17.52 14.66L17.52 14.66L15.70 14.66ZM26.36 22L24.88 22L24.88 13.47L27.88 13.47Q29.35 13.47 30.15 14.13Q30.96 14.79 30.96 16.05L30.96 16.05Q30.96 16.90 30.54 17.48Q30.13 18.06 29.39 18.37L29.39 18.37L31.31 21.92L31.31 22L29.72 22L28.01 18.71L26.36 18.71L26.36 22ZM26.36 14.66L26.36 17.52L27.88 17.52Q28.63 17.52 29.05 17.15Q29.48 16.77 29.48 16.11L29.48 16.11Q29.48 15.43 29.09 15.05Q28.70 14.68 27.92 14.66L27.92 14.66L26.36 14.66ZM35.08 18.00L35.08 18.00L35.08 17.52Q35.08 16.28 35.52 15.32Q35.97 14.37 36.77 13.86Q37.58 13.35 38.62 13.35Q39.66 13.35 40.47 13.85Q41.28 14.35 41.72 15.29Q42.15 16.23 42.16 17.48L42.16 17.48L42.16 17.96Q42.16 19.21 41.73 20.16Q41.29 21.10 40.49 21.61Q39.68 22.12 38.63 22.12L38.63 22.12Q37.60 22.12 36.78 21.61Q35.97 21.10 35.53 20.17Q35.09 19.23 35.08 18.00ZM36.56 17.46L36.56 17.96Q36.56 19.36 37.11 20.13Q37.66 20.90 38.63 20.90L38.63 20.90Q39.62 20.90 40.15 20.15Q40.68 19.40 40.68 17.96L40.68 17.96L40.68 17.51Q40.68 16.09 40.14 15.34Q39.61 14.58 38.62 14.58L38.62 14.58Q37.66 14.58 37.12 15.33Q36.58 16.09 36.56 17.46L36.56 17.46ZM46.02 19.57L46.02 19.57L47.50 19.57Q47.50 20.25 47.84 20.59Q48.17 20.93 48.81 20.93L48.81 20.93Q49.41 20.93 49.76 20.54Q50.12 20.14 50.12 19.45L50.12 19.45L50.12 13.47L51.59 13.47L51.59 19.45Q51.59 20.68 50.83 21.40Q50.06 22.12 48.81 22.12L48.81 22.12Q47.48 22.12 46.75 21.44Q46.02 20.77 46.02 19.57ZM61.85 22L56.28 22L56.28 13.47L61.81 13.47L61.81 14.66L57.76 14.66L57.76 17.02L61.26 17.02L61.26 18.19L57.76 18.19L57.76 20.82L61.85 20.82L61.85 22ZM65.78 18.19L65.78 18.19L65.78 17.39Q65.78 16.19 66.21 15.27Q66.64 14.35 67.43 13.85Q68.23 13.35 69.28 13.35L69.28 13.35Q70.70 13.35 71.56 14.12Q72.42 14.89 72.56 16.29L72.56 16.29L71.08 16.29Q70.98 15.37 70.55 14.96Q70.12 14.55 69.28 14.55L69.28 14.55Q68.32 14.55 67.80 15.26Q67.28 15.96 67.27 17.33L67.27 17.33L67.27 18.09Q67.27 19.47 67.76 20.20Q68.26 20.92 69.21 20.92L69.21 20.92Q70.09 20.92 70.53 20.53Q70.97 20.14 71.08 19.22L71.08 19.22L72.56 19.22Q72.43 20.59 71.55 21.35Q70.67 22.12 69.21 22.12L69.21 22.12Q68.19 22.12 67.42 21.63Q66.64 21.15 66.22 20.26Q65.80 19.37 65.78 18.19ZM78.55 14.66L75.92 14.66L75.92 13.47L82.68 13.47L82.68 14.66L80.02 14.66L80.02 22L78.55 22L78.55 14.66Z" fill="#FFFFFF"/><path class="svg__text" d="M111.23 22L107.64 13.60L110.21 13.60L112.49 19.07L114.82 13.60L117.17 13.60L113.57 22L111.23 22ZM123.70 22L121.32 22L121.32 13.60L123.70 13.60L123.70 22ZM128.29 21.24L128.29 21.24L129.07 19.49Q129.63 19.86 130.37 20.09Q131.12 20.32 131.84 20.32L131.84 20.32Q133.20 20.32 133.21 19.64L133.21 19.64Q133.21 19.28 132.82 19.11Q132.43 18.93 131.56 18.74L131.56 18.74Q130.61 18.53 129.98 18.30Q129.34 18.06 128.89 17.55Q128.44 17.03 128.44 16.16L128.44 16.16Q128.44 15.39 128.85 14.77Q129.27 14.15 130.11 13.79Q130.94 13.43 132.15 13.43L132.15 13.43Q132.98 13.43 133.78 13.62Q134.59 13.80 135.20 14.17L135.20 14.17L134.47 15.93Q133.27 15.28 132.14 15.28L132.14 15.28Q131.43 15.28 131.11 15.49Q130.78 15.70 130.78 16.04L130.78 16.04Q130.78 16.37 131.17 16.54Q131.55 16.71 132.40 16.89L132.40 16.89Q133.36 17.10 133.99 17.33Q134.62 17.56 135.09 18.07Q135.55 18.58 135.55 19.46L135.55 19.46Q135.55 20.21 135.13 20.83Q134.71 21.44 133.87 21.80Q133.03 22.17 131.83 22.17L131.83 22.17Q130.81 22.17 129.85 21.92Q128.89 21.67 128.29 21.24ZM142.50 22L140.12 22L140.12 13.60L142.50 13.60L142.50 22ZM152.22 22L147.68 22L147.68 13.60L151.98 13.60Q153.58 13.60 154.42 14.19Q155.27 14.79 155.27 15.79L155.27 15.79Q155.27 16.39 154.97 16.87Q154.67 17.34 154.13 17.62L154.13 17.62Q154.85 17.87 155.26 18.41Q155.67 18.94 155.67 19.70L155.67 19.70Q155.67 20.80 154.78 21.40Q153.89 22 152.22 22L152.22 22ZM150.03 18.58L150.03 20.28L152.02 20.28Q153.27 20.28 153.27 19.43L153.27 19.43Q153.27 18.58 152.02 18.58L152.02 18.58L150.03 18.58ZM150.03 15.31L150.03 16.94L151.66 16.94Q152.86 16.94 152.86 16.12L152.86 16.12Q152.86 15.31 151.66 15.31L151.66 15.31L150.03 15.31ZM162.77 22L160.39 22L160.39 13.60L162.77 13.60L162.77 22ZM174.33 22L167.94 22L167.94 13.60L170.32 13.60L170.32 20.11L174.33 20.11L174.33 22ZM181.12 22L178.74 22L178.74 13.60L181.12 13.60L181.12 22ZM188.09 15.48L185.51 15.48L185.51 13.60L193.03 13.60L193.03 15.48L190.46 15.48L190.46 22L188.09 22L188.09 15.48ZM199.53 18.95L196.32 13.60L198.83 13.60L200.82 16.94L202.81 13.60L205.12 13.60L201.90 18.99L201.90 22L199.53 22L199.53 18.95Z" fill="#FFFFFF" x="107.46000000000001"/></svg>